<?xml version="1.0" encoding="UTF-8" standalone="no"?>
<!-- Created with Inkscape (http://www.inkscape.org/) -->

<svg
   xmlns:dc="http://purl.org/dc/elements/1.1/"
   xmlns:cc="http://creativecommons.org/ns#"
   xmlns:rdf="http://www.w3.org/1999/02/22-rdf-syntax-ns#"
   xmlns:svg="http://www.w3.org/2000/svg"
   xmlns="http://www.w3.org/2000/svg"
   xmlns:sodipodi="http://sodipodi.sourceforge.net/DTD/sodipodi-0.dtd"
   xmlns:inkscape="http://www.inkscape.org/namespaces/inkscape"
   width="640px"
   height="480px"
   id="svg3100"
   version="1.1"
   inkscape:version="0.48.1 r9760"
   sodipodi:docname="New document 5">
  <defs
     id="defs3102" />
  <sodipodi:namedview
     id="base"
     pagecolor="#ffffff"
     bordercolor="#666666"
     borderopacity="1.0"
     inkscape:pageopacity="0.0"
     inkscape:pageshadow="2"
     inkscape:zoom="0.77472527"
     inkscape:cx="320"
     inkscape:cy="240"
     inkscape:current-layer="layer1"
     inkscape:document-units="px"
     showgrid="false"
     inkscape:window-width="1219"
     inkscape:window-height="874"
     inkscape:window-x="4"
     inkscape:window-y="54"
     inkscape:window-maximized="0" />
  <metadata
     id="metadata3105">
    <rdf:RDF>
      <cc:Work
         rdf:about="">
        <dc:format>image/svg+xml</dc:format>
        <dc:type
           rdf:resource="http://purl.org/dc/dcmitype/StillImage" />
        <dc:title></dc:title>
      </cc:Work>
    </rdf:RDF>
  </metadata>
  <g
     id="layer1"
     inkscape:label="Layer 1"
     inkscape:groupmode="layer">
    <path
       sodipodi:type="arc"
       style="fill:#ff0000;fill-rule:evenodd;stroke:#000000;stroke-width:1px;stroke-linecap:butt;stroke-linejoin:miter;stroke-opacity:1"
       id="path4071"
       sodipodi:cx="25.454546"
       sodipodi:cy="29"
       sodipodi:rx="15.636364"
       sodipodi:ry="14.818182"
       d="m 41.09091,29 a 15.636364,14.818182 0 1 1 -31.272728,-1e-6 L 25.454546,29 z"
       sodipodi:start="0"
       sodipodi:end="3.1415927"
       transform="matrix(-5.5657339,0,0,-5.1883534,459.20514,316.17162)" />
    <path
       style="fill:none;stroke:#000000;stroke-width:5.4705143px;stroke-linecap:butt;stroke-linejoin:miter;stroke-opacity:1"
       d="m 308.42949,89.364094 c 0,44.017906 0,44.017906 0,44.017906 22.25035,0.97817 22.25035,0.97817 22.25035,0.97817"
       id="path4075"
       inkscape:connector-curvature="0" />
    <path
       style="fill:none;stroke:#000000;stroke-width:5.4705143px;stroke-linecap:butt;stroke-linejoin:miter;stroke-opacity:1"
       d="m 327.64569,91.320444 c 0,42.061556 0,42.061556 0,42.061556 l 0,0 0,0"
       id="path4085"
       inkscape:connector-curvature="0" />
    <path
       style="fill:#ffffff"
       d="m 316.67222,130.51102 -4.80405,-0.36638 0,-19.02083 0,-19.020836 6.06828,0 6.06828,0 0,19.563506 c 0,15.09273 -0.28892,19.52322 -1.26423,19.38719 -0.69532,-0.097 -3.42605,-0.34119 -6.06828,-0.54267 z"
       id="path4087"
       inkscape:connector-curvature="0" />
    <path
       style="fill:none;stroke:#000000;stroke-width:5.4705143px;stroke-linecap:butt;stroke-linejoin:miter;stroke-opacity:1"
       d="M 263.92879,173.48719 C 277.07671,388.68581 277.07671,389.664 277.07671,389.664 l 82.93313,0 14.1593,-217.15498 0,0 0,0"
       id="path4091"
       inkscape:connector-curvature="0" />
    <path
       style="fill:none;stroke:#000000;stroke-width:5.4705143px;stroke-linecap:butt;stroke-linejoin:miter;stroke-opacity:1"
       d="m 262.9174,173.48719 c 110.24037,0 110.24037,0 110.24037,0"
       id="path4093"
       inkscape:connector-curvature="0" />
    <path
       style="fill:#808080"
       d="m 280.09986,383.35477 c -0.27896,-1.74849 -3.0432,-46.09653 -6.14274,-98.5512 -3.09955,-52.45466 -5.90903,-98.34333 -6.24328,-101.97481 l -0.60772,-6.60267 51.85626,0 51.85627,0 -0.58637,6.60267 c -0.32252,3.63148 -3.44612,50.95071 -6.94131,105.15387 l -6.35494,98.5512 -38.16449,0 -38.16448,0 -0.5072,-3.17906 z"
       id="path4095"
       inkscape:connector-curvature="0" />
  </g>
</svg>
